inDegrees=no
num_controls=7
num_derivatives=13
num_iterations=89
num_multipliers=7
num_parameters=0
num_slacks=7
num_states=26
objective=0.466977
objective_accelerations=0.022878
objective_balance=0.000629
objective_effort=0.020899
objective_height=0.416860
objective_ligament=0.005711
solver_duration=1052.461615
status=Solve_Succeeded
success=true
DataType=double
version=3
OpenSimVersion=4.5
endheader
time	/jointset/ground_pelvis/pelvis_tilt/value	/jointset/ground_pelvis/pelvis_tx/value	/jointset/ground_pelvis/pelvis_ty/value	/jointset/hip_r/hip_flexion_r/value	/jointset/hip_r/hip_adduction_r/value	/jointset/hip_r/hip_rotation_r/value	/jointset/back/lumbar_extension/value	/jointset/patellofemoral_r/patellar_flexion_r/value	/jointset/knee_r/knee_flexion_r/value	/jointset/knee_r/knee_adduction_r/value	/jointset/knee_r/knee_rotation_r/value	/jointset/ankle_r/ankle_angle_r/value	/jointset/subtalar_r/subtalar_angle_r/value	/jointset/ground_pelvis/pelvis_tilt/speed	/jointset/ground_pelvis/pelvis_tx/speed	/jointset/ground_pelvis/pelvis_ty/speed	/jointset/hip_r/hip_flexion_r/speed	/jointset/hip_r/hip_adduction_r/speed	/jointset/hip_r/hip_rotation_r/speed	/jointset/back/lumbar_extension/speed	/jointset/patellofemoral_r/patellar_flexion_r/speed	/jointset/knee_r/knee_flexion_r/speed	/jointset/knee_r/knee_adduction_r/speed	/jointset/knee_r/knee_rotation_r/speed	/jointset/ankle_r/ankle_angle_r/speed	/jointset/subtalar_r/subtalar_angle_r/speed	/forceset/tau_hip_flexion_r	/forceset/tau_hip_adduction_r	/forceset/tau_hip_rotation_r	/forceset/tau_knee_flexion_r	/forceset/tau_ankle_angle_r	/forceset/tau_subtalar_angle_r	/forceset/tau_lumbar_extension	lambda_cid13_p0	lambda_cid14_p0	lambda_cid14_p1	lambda_cid14_p2	lambda_cid14_p3	lambda_cid14_p4	lambda_cid14_p5	/jointset/ground_pelvis/pelvis_tilt/accel	/jointset/ground_pelvis/pelvis_tx/accel	/jointset/ground_pelvis/pelvis_ty/accel	/jointset/hip_r/hip_flexion_r/accel	/jointset/hip_r/hip_adduction_r/accel	/jointset/hip_r/hip_rotation_r/accel	/jointset/back/lumbar_extension/accel	/jointset/patellofemoral_r/patellar_flexion_r/accel	/jointset/knee_r/knee_flexion_r/accel	/jointset/knee_r/knee_adduction_r/accel	/jointset/knee_r/knee_rotation_r/accel	/jointset/ankle_r/ankle_angle_r/accel	/jointset/subtalar_r/subtalar_angle_r/accel	gamma_cid13_p0	gamma_cid14_p0	gamma_cid14_p1	gamma_cid14_p2	gamma_cid14_p3	gamma_cid14_p4	gamma_cid14_p5
0	-0.001508245815449959	0.1286866314606973	0.9341805632656569	0.1934211968871041	-0.2184912732844615	-0.2457296788581246	-0.2903787966825928	0.2311786273363507	0.2311786273363406	0.1110115055643366	0.1714790743647875	0.089344008118978	0.07595410384742274	0	0	0	0	0	0	0	0	0	0	0	0	0	0.06943624894065849	-0.01746642888838371	0.0009689162521648002	-0.2151574774327933	0.1077280174486352	-0.08527548125343255	0.009841757819435963	-29.82104723595667	-12.46846213273526	-34.61294008801887	0.6797783028884835	-5.723120732466592	-627.8460157046092	31.78382463232508	0.3584838756423058	-0.9044132988419468	-0.3954224125357751	4.087815439546588	0.01253168491407937	1.461152852020471	-5.046981631666501	6.082229700225561	6.082229700225526	-1.644134558158602	0.004338963976097249	2.081752101393616	0.622072082479413	3.884209541733434e-08	2.04297547229017e-08	-2.900740687968959e-07	1.526292882568442e-07	1.257655218694628e-08	8.305637226692924e-08	-2.1335270290826e-07
0.01	-0.001489145466434	0.1286435178716545	0.9341613378082951	0.1936183206908055	-0.2184905395833159	-0.2456582266347163	-0.2906301749652147	0.2314765947076582	0.2314765947076183	0.1109306602312991	0.1714792342638319	0.08944773340429511	0.0759852560804468	0.003691122731049269	-0.008424740018063575	-0.003839694360974786	0.03913138148341015	4.799461239903292e-05	0.01403992486769343	-0.04992443803566061	0.05930273000439013	0.05930273000439026	-0.01589547038608735	0.000253527323337332	0.0207969365768783	0.006128083207667175	0.07344739642013649	-0.03268756164193044	0.0005556184597779962	-0.2268219479881528	0.1233283459192996	-0.07828052105980508	0.00805559427829252	-29.82409632812685	-7.061928645105715	-30.76897970569327	0.2275397368215927	-11.1767614366866	-629.1007456230072	41.09854688934261	0.3550837848880742	-0.7818051699608302	-0.3774167698647755	3.781793081481757	-0.01389385884550797	1.337868602649746	-4.912492115763975	5.810675244478532	5.810675244478588	-1.521245564389763	0.06912367605464909	2.086454412039984	0.5927942282283756	2.607815794058247e-08	8.590189022697876e-09	-1.861668953623147e-07	1.095696994448495e-07	1.409852314766466e-08	1.70767044618928e-08	-1.506130170844073e-07
0.02	-0.001437002427508772	0.128522096719096	0.9341038806429262	0.1941979570250776	-0.2184922913777006	-0.2454538839029317	-0.2913702610734474	0.232358865497745	0.2323588654977453	0.1106990617372936	0.1714885822481096	0.08976098605061744	0.07607461270321116	0.006608537984212626	-0.01566151270310584	-0.007646341601464449	0.07650250611655483	-0.000497099105157113	0.02657810167561739	-0.09774156512122123	0.1168606837660942	0.1168606837660939	-0.03015063219441347	0.001837617028354819	0.0419054722019601	0.01164087794805412	0.07745854389958842	-0.04790869439541807	0.0001423206678188621	-0.2384864185435525	0.1389286743899757	-0.07128556086610746	0.006269430737112243	-29.83335180138782	-1.609162125232444	-26.92918480454171	-0.2100298248643754	-16.6514055086189	-629.636077250008	50.25311530821592	0.2037423800653664	-0.666819832237885	-0.3888129884387385	3.7357640694935	-0.1060859810769756	1.160803240066583	-4.625519441646366	5.733274451688404	5.733274451688249	-1.316072842606321	0.2704514403121591	2.144071911034105	0.4990143890232799	1.33142204638306e-08	-3.249376677505952e-09	-8.225972192773353e-08	6.651011063285494e-08	1.562049410838304e-08	-4.890296334314364e-08	-8.787333126055476e-08
0.03	-0.001358184381022664	0.1283321998941595	0.9340085203405426	0.1951442080805625	-0.2185012332439771	-0.2451295419021523	-0.2925787686771402	0.2338085420823461	0.2338085420823619	0.1103305996011479	0.1715177653524417	0.09028509925918017	0.07621698380688002	0.009176864619005853	-0.02232417534345246	-0.01141752186680398	0.1126076428534692	-0.001253076027171642	0.03832157963881604	-0.1437018773808658	0.1728260946921441	0.1728260946921432	-0.043540238508539	0.003875908530550972	0.06279247171610672	0.01684439266183771	0.07260246149938393	-0.0434509634228446	0.0005253056235161024	-0.2313870036899692	0.1286893093205582	-0.07069144435959185	0.01006129521958904	-29.84890299875486	-4.915773035717894	-27.11295921009399	-0.3374059731148937	-14.30996912856395	-630.3378187982444	48.92916079767281	0.2866489843974968	-0.666934809082929	-0.3700510414594353	3.526880298976819	-0.05462065921159281	1.185824727511585	-4.542575382292997	5.490891032312637	5.490891032312706	-1.350175881698631	0.1520660444051496	2.042310160980402	0.5326728971205107	2.408333393336897e-08	-4.184850929122236e-09	-1.653776967008853e-07	9.336212714833471e-08	2.478256108491334e-08	-7.388199177829162e-08	-1.393777777029637e-07
0.04	-0.001253028832358343	0.1280754873769893	0.9338756921363298	0.1964473088680473	-0.2185165883017586	-0.2446868241911244	-0.2942391370562645	0.2358104161000791	0.2358104161000793	0.1098282871306541	0.1715636409796067	0.09101434170076204	0.07641172063459963	0.0118760384222965	-0.02902465114985702	-0.01513992196729539	0.1478724525178449	-0.001779737407089877	0.05025324372461841	-0.1881137202072664	0.2273001703881698	0.2273001703881692	-0.05692069905797324	0.005176121602025067	0.08293131880527133	0.0221140227582011	0.06774637909917675	-0.03899323245031426	0.000908290579033181	-0.2242875888363889	0.1184499442511215	-0.07009732785313189	0.01385315970208373	-29.87011721034928	-8.179097188610681	-27.30065736634853	-0.4510172912362198	-11.99561534706392	-630.3698262149228	47.45961544361707	0.2299118137650799	-0.674382465449657	-0.3790569554691013	3.567698654985758	-0.06022287265773769	1.198440464587332	-4.315825554997462	5.435007405683623	5.435007405683619	-1.31424368966803	0.1228357541677788	1.994441426037515	0.5122374655391585	3.533766494819166e-08	-4.895498552932586e-09	-2.523518600968769e-07	1.216556200623191e-07	3.410215581434697e-08	-9.801564620581305e-08	-1.932377732642647e-07
0.05	-0.00112067975785976	0.1277521371355905	0.9337057773474927	0.1980984051676815	-0.2185367951427792	-0.2441256398135268	-0.2963355112716071	0.2383495223917377	0.2383495223917412	0.1091936745539023	0.1716209131020203	0.0919415848325269	0.07665872107516193	0.01458708105367284	-0.0355955999299542	-0.01884215274911311	0.1821389305530912	-0.002283608880719354	0.06183162079281159	-0.2308838193603975	0.2802543376631089	0.2802543376631023	-0.06988118336451217	0.006358077761916937	0.1024279430774072	0.02723674520920503	0.06480846076288921	-0.03979542612933534	0.001099632953717207	-0.2222081448753281	0.1146436366903893	-0.06731731559097405	0.01653119906232977	-29.89630899837547	-9.254885872855576	-26.22618718999436	-0.6856815280823441	-11.68509880093723	-630.8044450007046	49.13321633440574	0.2906998198648781	-0.6409746090227015	-0.3656934800066526	3.324942385284499	-0.04877483000439271	1.114761925186553	-4.216006569998567	5.185601687868354	5.185601687867504	-1.268882271256494	0.1278670182459165	1.913873434717065	0.504866301959268	2.858499123750873e-08	-8.248602986402955e-09	-1.859475054987523e-07	1.028449108389176e-07	3.148632604438435e-08	-1.271428082377623e-07	-1.537978770906547e-07
